<?xml version="1.0" encoding="utf-8"?>
<!-- Generator: Adobe Illustrator 24.3.0, SVG Export Plug-In . SVG Version: 6.00 Build 0)  -->
<svg version="1.1" id="Layer_1" xmlns="http://www.w3.org/2000/svg" xmlns:xlink="http://www.w3.org/1999/xlink" x="0px" y="0px"
	 viewBox="0 0 512 512" style="enable-background:new 0 0 512 512;" xml:space="preserve">
<style type="text/css">
	.st0{fill:#1199FF;}
</style>
<path class="st0" d="M256,405.2c-82.3,0-149.2-66.9-149.2-149.2S173.7,106.8,256,106.8S405.2,173.7,405.2,256S338.3,405.2,256,405.2
	L256,405.2z"/>
<path class="st0" d="M256,74.1c-11.6,0-21-9.4-21-21V21c0-11.6,9.4-21,21-21c11.6,0,21,9.4,21,21v32C277,64.7,267.6,74.1,256,74.1
	L256,74.1z"/>
<path class="st0" d="M53.1,277H21c-11.6,0-21-9.4-21-21c0-11.6,9.4-21,21-21h32c11.6,0,21,9.4,21,21C74.1,267.6,64.7,277,53.1,277z"
	/>
<path class="st0" d="M256,512c-11.6,0-21-9.4-21-21v-32c0-11.6,9.4-21,21-21c11.6,0,21,9.4,21,21v32C277,502.6,267.6,512,256,512
	L256,512z"/>
<path class="st0" d="M491,277h-32c-11.6,0-21-9.4-21-21c0-11.6,9.4-21,21-21h32c11.6,0,21,9.4,21,21C512,267.6,502.6,277,491,277z"
	/>
<path class="st0" d="M405.5,127.5c-18.6,0-28.2-22.6-14.9-35.9l10.7-10.7c8.2-8.2,21.5-8.2,29.7,0c8.2,8.2,8.2,21.5,0,29.7
	C421,120.7,416.3,127.5,405.5,127.5z"/>
<path class="st0" d="M106.5,127.5c-5.4,0-10.8-2.1-14.9-6.2l-10.7-10.7c-8.2-8.2-8.2-21.5,0-29.7c8.2-8.2,21.5-8.2,29.7,0l10.7,10.7
	C134.6,104.9,125,127.5,106.5,127.5z"/>
<path class="st0" d="M95.8,437.2c-18.6,0-28.2-22.6-14.9-35.9l10.7-10.7c8.2-8.2,21.5-8.2,29.7,0c8.2,8.2,8.2,21.5,0,29.7
	C111.3,430.4,106.6,437.2,95.8,437.2z"/>
<path class="st0" d="M416.2,437.2c-5.4,0-10.8-2.1-14.9-6.2l-10.7-10.7c-8.2-8.2-8.2-21.5,0-29.7c8.2-8.2,21.5-8.2,29.7,0l10.7,10.7
	C444.4,414.6,434.8,437.2,416.2,437.2z"/>
</svg>
